<?xml version="1.0" encoding="UTF-8"?>
<svg version="1.1" xmlns="http://www.w3.org/2000/svg" width="256" height="256">
<path d="M0 0 C2.31 0 4.62 0 7 0 C7 2.64 7 5.28 7 8 C5.02 8 3.04 8 1 8 C1 9.98 1 11.96 1 14 C-0.98 14 -2.96 14 -5 14 C-5 15.98 -5 17.96 -5 20 C-12.26 20 -19.52 20 -27 20 C-27.495 22.475 -27.495 22.475 -28 25 C-29.98 25 -31.96 25 -34 25 C-34 26.98 -34 28.96 -34 31 C-37.96 31 -41.92 31 -46 31 C-46 32.98 -46 34.96 -46 37 C-47.98 37 -49.96 37 -52 37 C-52 42.28 -52 47.56 -52 53 C-50.68 53 -49.36 53 -48 53 C-48 51.02 -48 49.04 -48 47 C-46.02 47 -44.04 47 -42 47 C-42 45.02 -42 43.04 -42 41 C-36.06 41 -30.12 41 -24 41 C-24 39.02 -24 37.04 -24 35 C-20.04 35 -16.08 35 -12 35 C-12 33.35 -12 31.7 -12 30 C-11 29 -11 29 -8.71484375 28.90234375 C-7.79832031 28.91394531 -6.88179688 28.92554687 -5.9375 28.9375 C-5.01839844 28.94652344 -4.09929687 28.95554687 -3.15234375 28.96484375 C-2.44207031 28.97644531 -1.73179688 28.98804687 -1 29 C-1 27.35 -1 25.7 -1 24 C0.98 24 2.96 24 5 24 C5 22.02 5 20.04 5 18 C7.64 18 10.28 18 13 18 C13 20.31 13 22.62 13 25 C11.02 25 9.04 25 7 25 C7 26.98 7 28.96 7 31 C5.02 31 3.04 31 1 31 C1 32.98 1 34.96 1 37 C-2.63 37 -6.26 37 -10 37 C-10 38.98 -10 40.96 -10 43 C-13.96 43 -17.92 43 -22 43 C-22 44.98 -22 46.96 -22 49 C-27.94 49 -33.88 49 -40 49 C-40 50.98 -40 52.96 -40 55 C-41.98 55 -43.96 55 -46 55 C-46 56.32 -46 57.64 -46 59 C-44.02 59 -42.04 59 -40 59 C-40 60.98 -40 62.96 -40 65 C-38.02 65 -36.04 65 -34 65 C-34 66.98 -34 68.96 -34 71 C-28.72 71 -23.44 71 -18 71 C-18 69.02 -18 67.04 -18 65 C-16.02 65 -14.04 65 -12 65 C-12 63.02 -12 61.04 -12 59 C-10.02 59 -8.04 59 -6 59 C-6 57.02 -6 55.04 -6 53 C-4.35 52.67 -2.7 52.34 -1 52 C-0.67 50.35 -0.34 48.7 0 47 C3.63 47 7.26 47 11 47 C11 45.02 11 43.04 11 41 C16.25105442 40.97535072 21.50207545 40.95716432 26.75317383 40.94506836 C28.54094021 40.94002782 30.32870245 40.93319546 32.11645508 40.92456055 C34.68051168 40.9124827 37.24451397 40.90676906 39.80859375 40.90234375 C40.6127623 40.89718246 41.41693085 40.89202118 42.24546814 40.88670349 C44.16401715 40.88650785 46.08245368 40.93798017 48 41 C49 42 49 42 49 47 C58.57 47 68.14 47 78 47 C78 48.98 78 50.96 78 53 C81.96 53 85.92 53 90 53 C90 54.98 90 56.96 90 59 C91.98 59 93.96 59 96 59 C96 60.98 96 62.96 96 65 C97.98 65 99.96 65 102 65 C102 66.98 102 68.96 102 71 C103.98 71 105.96 71 108 71 C108 72.65 108 74.3 108 76 C109.65 76 111.3 76 113 76 C113 92.5 113 109 113 126 C111.35 126 109.7 126 108 126 C108.0309375 127.2065625 108.0309375 127.2065625 108.0625 128.4375 C108 131 108 131 107 132 C105.33382885 132.04063832 103.66611905 132.042721 102 132 C102 133.65 102 135.3 102 137 C100.35 137.33 98.7 137.66 97 138 C96.67 139.65 96.34 141.3 96 143 C90.06 143 84.12 143 78 143 C78 144.98 78 146.96 78 149 C68.43 149 58.86 149 49 149 C49 152.96 49 156.92 49 161 C47.02 161 45.04 161 43 161 C43 162.98 43 164.96 43 167 C41.02 167 39.04 167 37 167 C37 168.98 37 170.96 37 173 C28.42 173 19.84 173 11 173 C11 171.02 11 169.04 11 167 C9.02 167 7.04 167 5 167 C5 162.38 5 157.76 5 153 C6.98 153 8.96 153 11 153 C11 151.68 11 150.36 11 149 C9.02 149 7.04 149 5 149 C5 142.73 5 136.46 5 130 C6.98 130 8.96 130 11 130 C11 128.02 11 126.04 11 124 C19.58 124 28.16 124 37 124 C37 125.98 37 127.96 37 130 C38.98 130 40.96 130 43 130 C43 131.65 43 133.3 43 135 C46.3 135 49.6 135 53 135 C53 133.35 53 131.7 53 130 C56.63 130 60.26 130 64 130 C64 128.02 64 126.04 64 124 C65.98 124 67.96 124 70 124 C70 120.04 70 116.08 70 112 C71.98 112 73.96 112 76 112 C76 108.7 76 105.4 76 102 C74.02 102 72.04 102 70 102 C70 100.02 70 98.04 70 96 C66.04 96 62.08 96 58 96 C58 94.35 58 92.7 58 91 C38.695 90.505 38.695 90.505 19 90 C19 91.98 19 93.96 19 96 C6.79 96 -5.42 96 -18 96 C-18 94.02 -18 92.04 -18 90 C-21.96 90 -25.92 90 -30 90 C-30 88.02 -30 86.04 -30 84 C-31.32 84 -32.64 84 -34 84 C-34 85.98 -34 87.96 -34 90 C-35.98 90 -37.96 90 -40 90 C-40 91.98 -40 93.96 -40 96 C-41.98 96 -43.96 96 -46 96 C-46 97.98 -46 99.96 -46 102 C-52.27 102 -58.54 102 -65 102 C-65 100.02 -65 98.04 -65 96 C-66.98 96 -68.96 96 -71 96 C-71 94.02 -71 92.04 -71 90 C-72.98 90 -74.96 90 -77 90 C-77 83.73 -77 77.46 -77 71 C-75.02 71 -73.04 71 -71 71 C-71 69.02 -71 67.04 -71 65 C-69.02 65 -67.04 65 -65 65 C-65 63.02 -65 61.04 -65 59 C-63.02 59 -61.04 59 -59 59 C-59.03552979 58.34402832 -59.07105957 57.68805664 -59.10766602 57.01220703 C-59.26493583 54.05007338 -59.4138205 51.08757671 -59.5625 48.125 C-59.61857422 47.09246094 -59.67464844 46.05992188 -59.73242188 44.99609375 C-59.78076172 44.00996094 -59.82910156 43.02382812 -59.87890625 42.0078125 C-59.9260376 41.09660645 -59.97316895 40.18540039 -60.02172852 39.24658203 C-60 37 -60 37 -59 35 C-57.35 35 -55.7 35 -54 35 C-54 33.35 -54 31.7 -54 30 C-52.35 29.67 -50.7 29.34 -49 29 C-48.67 27.35 -48.34 25.7 -48 24 C-44.04 24 -40.08 24 -36 24 C-36 22.02 -36 20.04 -36 18 C-34.02 18 -32.04 18 -30 18 C-30 16.02 -30 14.04 -30 12 C-22.08 12 -14.16 12 -6 12 C-6 10.02 -6 8.04 -6 6 C-3.525 5.505 -3.525 5.505 -1 5 C-0.67 3.35 -0.34 1.7 0 0 Z M-58 61 C-58 62.65 -58 64.3 -58 66 C-59.65 66.33 -61.3 66.66 -63 67 C-63.33 68.65 -63.66 70.3 -64 72 C-65.65 72.33 -67.3 72.66 -69 73 C-69 77.95 -69 82.9 -69 88 C-67.35 88.33 -65.7 88.66 -64 89 C-63.67 90.65 -63.34 92.3 -63 94 C-58.05 94 -53.1 94 -48 94 C-47.67 92.35 -47.34 90.7 -47 89 C-45.35 88.67 -43.7 88.34 -42 88 C-41.67 86.35 -41.34 84.7 -41 83 C-39.35 82.67 -37.7 82.34 -36 82 C-36 79.03 -36 76.06 -36 73 C-37.98 73 -39.96 73 -42 73 C-42 71.02 -42 69.04 -42 67 C-43.98 67 -45.96 67 -48 67 C-48 65.02 -48 63.04 -48 61 C-51.3 61 -54.6 61 -58 61 Z " fill="#F7708E" transform="translate(106,38)"/>
<path d="M0 0 C12.21 0 24.42 0 37 0 C37 0.33 37 0.66 37 1 C25.12 1 13.24 1 1 1 C1 2.98 1 4.96 1 7 C12.88 7 24.76 7 37 7 C37 8.98 37 10.96 37 13 C44.59 13 52.18 13 60 13 C60 20.92 60 28.84 60 37 C42.51 37 25.02 37 7 37 C7 42.61 7 48.22 7 54 C-4.55 54 -16.1 54 -28 54 C-28 46.41 -28 38.82 -28 31 C-26.02 31 -24.04 31 -22 31 C-22 29.02 -22 27.04 -22 25 C-20.02 25 -18.04 25 -16 25 C-16 23.02 -16 21.04 -16 19 C-14.35 19 -12.7 19 -11 19 C-11 17.02 -11 15.04 -11 13 C-12.98 13 -14.96 13 -17 13 C-17 12.67 -17 12.34 -17 12 C-15.35 11.67 -13.7 11.34 -12 11 C-11.67 9.35 -11.34 7.7 -11 6 C-7.37 6 -3.74 6 0 6 C0 4.02 0 2.04 0 0 Z " fill="#FC6888" transform="translate(117,79)"/>
<path d="M0 0 C5.61 0 11.22 0 17 0 C17 1.98 17 3.96 17 6 C15.02 6 13.04 6 11 6 C11 9.96 11 13.92 11 18 C9.02 18 7.04 18 5 18 C5 19.98 5 21.96 5 24 C8.63 24 12.26 24 16 24 C16 25.65 16 27.3 16 29 C10.72 29.33 5.44 29.66 0 30 C-0.33 31.65 -0.66 33.3 -1 35 C-2.98 35 -4.96 35 -7 35 C-7 36.98 -7 38.96 -7 41 C-10.63 41 -14.26 41 -18 41 C-18 42.98 -18 44.96 -18 47 C-10.41 47 -2.82 47 5 47 C5 48.98 5 50.96 5 53 C-4.9 53 -14.8 53 -25 53 C-25 56.96 -25 60.92 -25 65 C-28.96 65 -32.92 65 -37 65 C-37 68.63 -37 72.26 -37 76 C-44.26 76 -51.52 76 -59 76 C-59 74.35 -59 72.7 -59 71 C-57.35 71 -55.7 71 -54 71 C-54 69.02 -54 67.04 -54 65 C-50.04 65 -46.08 65 -42 65 C-42 63.02 -42 61.04 -42 59 C-47.94 59 -53.88 59 -60 59 C-60 54 -60 54 -59 53 C-56.13732433 52.92674832 -53.299281 52.90761795 -50.4375 52.9375 C-49.63119141 52.94201172 -48.82488281 52.94652344 -47.99414062 52.95117188 C-45.99606244 52.96299482 -43.99802217 52.98093086 -42 53 C-42 49.37 -42 45.74 -42 42 C-40.02 42 -38.04 42 -36 42 C-36 40.02 -36 38.04 -36 36 C-34.02 36 -32.04 36 -30 36 C-30 37.65 -30 39.3 -30 41 C-26.37 41 -22.74 41 -19 41 C-19 39.02 -19 37.04 -19 35 C-15.37 35 -11.74 35 -8 35 C-8 33.02 -8 31.04 -8 29 C-6.02 29 -4.04 29 -2 29 C-2 25.04 -2 21.08 -2 17 C0.31 17 2.62 17 5 17 C5 13.37 5 9.74 5 6 C3.35 6 1.7 6 0 6 C0 4.02 0 2.04 0 0 Z " fill="#D1205C" transform="translate(178,133)"/>
<path d="M0 0 C2.31 0 4.62 0 7 0 C7 2.64 7 5.28 7 8 C5.02 8 3.04 8 1 8 C1 9.98 1 11.96 1 14 C-0.98 14 -2.96 14 -5 14 C-5 15.98 -5 17.96 -5 20 C-12.26 20 -19.52 20 -27 20 C-27.495 22.475 -27.495 22.475 -28 25 C-29.98 25 -31.96 25 -34 25 C-34 26.98 -34 28.96 -34 31 C-37.96 31 -41.92 31 -46 31 C-46 32.98 -46 34.96 -46 37 C-47.98 37 -49.96 37 -52 37 C-52 42.28 -52 47.56 -52 53 C-50.68 53 -49.36 53 -48 53 C-48 51.02 -48 49.04 -48 47 C-46.02 47 -44.04 47 -42 47 C-42 45.02 -42 43.04 -42 41 C-36.06 41 -30.12 41 -24 41 C-24 39.02 -24 37.04 -24 35 C-20.04 35 -16.08 35 -12 35 C-12 33.35 -12 31.7 -12 30 C-11 29 -11 29 -8.71484375 28.90234375 C-7.79832031 28.91394531 -6.88179687 28.92554687 -5.9375 28.9375 C-5.01839844 28.94652344 -4.09929687 28.95554687 -3.15234375 28.96484375 C-2.44207031 28.97644531 -1.73179688 28.98804687 -1 29 C-1 27.35 -1 25.7 -1 24 C0.98 24 2.96 24 5 24 C5 22.02 5 20.04 5 18 C7.64 18 10.28 18 13 18 C13 20.31 13 22.62 13 25 C11.02 25 9.04 25 7 25 C7 26.98 7 28.96 7 31 C5.02 31 3.04 31 1 31 C1 32.98 1 34.96 1 37 C-2.96 37 -6.92 37 -11 37 C-11 38.65 -11 40.3 -11 42 C-14.96 42 -18.92 42 -23 42 C-23 43.98 -23 45.96 -23 48 C-28.94 48 -34.88 48 -41 48 C-41 49.98 -41 51.96 -41 54 C-42.98 54 -44.96 54 -47 54 C-47 55.98 -47 57.96 -47 60 C-48.81242052 60.02687279 -50.62495233 60.04633715 -52.4375 60.0625 C-53.44683594 60.07410156 -54.45617188 60.08570313 -55.49609375 60.09765625 C-58 60 -58 60 -59 59 C-59.38235011 55.36767393 -59.4700424 51.71083985 -59.625 48.0625 C-59.6765625 47.03447266 -59.728125 46.00644531 -59.78125 44.94726562 C-59.82507812 43.96564453 -59.86890625 42.98402344 -59.9140625 41.97265625 C-59.9752124 40.61539429 -59.9752124 40.61539429 -60.03759766 39.23071289 C-60 37 -60 37 -59 35 C-57.35 35 -55.7 35 -54 35 C-54 33.35 -54 31.7 -54 30 C-52.35 29.67 -50.7 29.34 -49 29 C-48.67 27.35 -48.34 25.7 -48 24 C-44.04 24 -40.08 24 -36 24 C-36 22.02 -36 20.04 -36 18 C-34.02 18 -32.04 18 -30 18 C-30 16.02 -30 14.04 -30 12 C-22.08 12 -14.16 12 -6 12 C-6 10.02 -6 8.04 -6 6 C-4.35 5.67 -2.7 5.34 -1 5 C-0.67 3.35 -0.34 1.7 0 0 Z " fill="#D697AE" transform="translate(106,38)"/>
<path d="M0 0 C8.58 0 17.16 0 26 0 C26 1.98 26 3.96 26 6 C27.98 6 29.96 6 32 6 C32 7.65 32 9.3 32 11 C35.3 11 38.6 11 42 11 C42 11.33 42 11.66 42 12 C38.37 12 34.74 12 31 12 C31 10.35 31 8.7 31 7 C29.02 7 27.04 7 25 7 C25 8.98 25 10.96 25 13 C23.02 13 21.04 13 19 13 C19 16.63 19 20.26 19 24 C10.585 24.495 10.585 24.495 2 25 C1.67 26.65 1.34 28.3 1 30 C6.94 30 12.88 30 19 30 C19 31.98 19 33.96 19 36 C15.04 36 11.08 36 7 36 C7 37.98 7 39.96 7 42 C5.35 42 3.7 42 2 42 C2 43.65 2 45.3 2 47 C9.26 47 16.52 47 24 47 C24 45.35 24 43.7 24 42 C18.72 42 13.44 42 8 42 C8 41.67 8 41.34 8 41 C13.28 41 18.56 41 24 41 C24 39.35 24 37.7 24 36 C27.96 36 31.92 36 36 36 C36 32.04 36 28.08 36 24 C45.9 24 55.8 24 66 24 C66 22.02 66 20.04 66 18 C71.94 18 77.88 18 84 18 C84 16.35 84 14.7 84 13 C84.33 13 84.66 13 85 13 C85 14.98 85 16.96 85 19 C79.06 19 73.12 19 67 19 C67 20.98 67 22.96 67 25 C57.43 25 47.86 25 38 25 C38 28.96 38 32.92 38 37 C36.02 37 34.04 37 32 37 C32 38.98 32 40.96 32 43 C30.02 43 28.04 43 26 43 C26 44.98 26 46.96 26 49 C17.42 49 8.84 49 0 49 C0 47.02 0 45.04 0 43 C-1.98 43 -3.96 43 -6 43 C-6 38.38 -6 33.76 -6 29 C-4.02 29 -2.04 29 0 29 C0 27.68 0 26.36 0 25 C-1.98 25 -3.96 25 -6 25 C-6 18.73 -6 12.46 -6 6 C-4.02 6 -2.04 6 0 6 C0 4.02 0 2.04 0 0 Z " fill="#E5AFC3" transform="translate(117,162)"/>
<path d="M0 0 C9.57 0 19.14 0 29 0 C29 1.98 29 3.96 29 6 C32.96 6 36.92 6 41 6 C41 7.98 41 9.96 41 12 C37.04 12 33.08 12 29 12 C29 19.92 29 27.84 29 36 C27.02 36 25.04 36 23 36 C23 39.63 23 43.26 23 47 C19.37 47 15.74 47 12 47 C12 45.02 12 43.04 12 41 C-1.86 41 -15.72 41 -30 41 C-30 37.37 -30 33.74 -30 30 C-12.51 30 4.98 30 23 30 C23 22.08 23 14.16 23 6 C15.41 6 7.82 6 0 6 C0 4.02 0 2.04 0 0 Z " fill="#FD3666" transform="translate(154,86)"/>
<path d="M0 0 C1.98 0 3.96 0 6 0 C6 1.98 6 3.96 6 6 C9.63 6 13.26 6 17 6 C17 7.98 17 9.96 17 12 C13.37 12 9.74 12 6 12 C6 13.98 6 15.96 6 18 C9.96 18 13.92 18 18 18 C18 19.98 18 21.96 18 24 C16.02 24 14.04 24 12 24 C12 27.63 12 31.26 12 35 C6.06 35 0.12 35 -6 35 C-6 33.35 -6 31.7 -6 30 C-7.98 30 -9.96 30 -12 30 C-12 31.98 -12 33.96 -12 36 C-10.02 36 -8.04 36 -6 36 C-6 37.65 -6 39.3 -6 41 C-13.59 41 -21.18 41 -29 41 C-29 39.02 -29 37.04 -29 35 C-25.37 35 -21.74 35 -18 35 C-18 33.02 -18 31.04 -18 29 C-16.02 29 -14.04 29 -12 29 C-12.020625 28.195625 -12.04125 27.39125 -12.0625 26.5625 C-12 24 -12 24 -11 23 C-8.30345146 22.92680379 -5.63308542 22.90757463 -2.9375 22.9375 C-2.17888672 22.94201172 -1.42027344 22.94652344 -0.63867188 22.95117188 C1.24091871 22.9629932 3.12046899 22.98092922 5 23 C5 21.35 5 19.7 5 18 C1.37 18 -2.26 18 -6 18 C-6 16.02 -6 14.04 -6 12 C-4.02 12 -2.04 12 0 12 C0 8.04 0 4.08 0 0 Z " fill="#FD6485" transform="translate(189,139)"/>
<path d="M0 0 C5.61 0 11.22 0 17 0 C17 1.98 17 3.96 17 6 C15.02 6 13.04 6 11 6 C11 9.96 11 13.92 11 18 C9.02 18 7.04 18 5 18 C5 19.98 5 21.96 5 24 C8.63 24 12.26 24 16 24 C16 25.65 16 27.3 16 29 C10.72 29.33 5.44 29.66 0 30 C-0.33 31.65 -0.66 33.3 -1 35 C-2.98 35 -4.96 35 -7 35 C-7 36.98 -7 38.96 -7 41 C-10.63 41 -14.26 41 -18 41 C-18 43.31 -18 45.62 -18 48 C-10.74 48 -3.48 48 4 48 C4 49.32 4 50.64 4 52 C-5.24 52 -14.48 52 -24 52 C-24 50.35 -24 48.7 -24 47 C-25.98 47 -27.96 47 -30 47 C-30.33 43.37 -30.66 39.74 -31 36 C-30.67 36 -30.34 36 -30 36 C-30 37.65 -30 39.3 -30 41 C-26.37 41 -22.74 41 -19 41 C-19 39.02 -19 37.04 -19 35 C-15.37 35 -11.74 35 -8 35 C-8 33.02 -8 31.04 -8 29 C-6.02 29 -4.04 29 -2 29 C-2 25.04 -2 21.08 -2 17 C0.31 17 2.62 17 5 17 C5 13.37 5 9.74 5 6 C3.35 6 1.7 6 0 6 C0 4.02 0 2.04 0 0 Z " fill="#C16184" transform="translate(178,133)"/>
<path d="M0 0 C1.98 0 3.96 0 6 0 C6 1.98 6 3.96 6 6 C4.35 6 2.7 6 1 6 C1 8.31 1 10.62 1 13 C-0.65 13 -2.3 13 -4 13 C-4 17.95 -4 22.9 -4 28 C-2.35 28 -0.7 28 1 28 C2 29 2 29 2 34 C6.95 34 11.9 34 17 34 C17 32.35 17 30.7 17 29 C19.64 29 22.28 29 25 29 C25 27.35 25 25.7 25 24 C26.98 24 28.96 24 31 24 C31 25.98 31 27.96 31 30 C29.02 30 27.04 30 25 30 C25 31.98 25 33.96 25 36 C23.02 36 21.04 36 19 36 C19 37.98 19 39.96 19 42 C12.73 42 6.46 42 0 42 C0 40.02 0 38.04 0 36 C-1.98 36 -3.96 36 -6 36 C-6 34.02 -6 32.04 -6 30 C-7.98 30 -9.96 30 -12 30 C-12 23.73 -12 17.46 -12 11 C-10.02 11 -8.04 11 -6 11 C-6 9.02 -6 7.04 -6 5 C-4.02 5 -2.04 5 0 5 C0 3.35 0 1.7 0 0 Z " fill="#D696AF" transform="translate(41,98)"/>
<path d="M0 0 C9.57 0 19.14 0 29 0 C29 1.98 29 3.96 29 6 C32.96 6 36.92 6 41 6 C41 7.98 41 9.96 41 12 C37.04 12 33.08 12 29 12 C29 19.92 29 27.84 29 36 C27.02 36 25.04 36 23 36 C23 39.63 23 43.26 23 47 C19.37 47 15.74 47 12 47 C12 45.02 12 43.04 12 41 C13.65 41 15.3 41 17 41 C17 39.02 17 37.04 17 35 C18.98 35 20.96 35 23 35 C23 25.43 23 15.86 23 6 C15.41 6 7.82 6 0 6 C0 4.02 0 2.04 0 0 Z " fill="#C30951" transform="translate(154,86)"/>
<path d="M0 0 C1.65 0 3.3 0 5 0 C5 7.26 5 14.52 5 22 C3.02 22 1.04 22 -1 22 C-1 23.98 -1 25.96 -1 28 C-2.98 28 -4.96 28 -7 28 C-7 29.98 -7 31.96 -7 34 C-9.475 34.495 -9.475 34.495 -12 35 C-12 36.65 -12 38.3 -12 40 C-17.94 40 -23.88 40 -30 40 C-30 38.35 -30 36.7 -30 35 C-31.98 35 -33.96 35 -36 35 C-36 33.02 -36 31.04 -36 29 C-34.02 29 -32.04 29 -30 29 C-30 30.65 -30 32.3 -30 34 C-24.06 34 -18.12 34 -12 34 C-12 30.37 -12 26.74 -12 23 C-10.02 23 -8.04 23 -6 23 C-6 21.02 -6 19.04 -6 17 C-9.96 17 -13.92 17 -18 17 C-18 15.02 -18 13.04 -18 11 C-14.37 11 -10.74 11 -7 11 C-7 9.02 -7 7.04 -7 5 C-4.69 5 -2.38 5 0 5 C0 3.35 0 1.7 0 0 Z " fill="#F12F63" transform="translate(213,140)"/>
<path d="M0 0 C2.31 0 4.62 0 7 0 C7 2.64 7 5.28 7 8 C5.02 8 3.04 8 1 8 C1 9.98 1 11.96 1 14 C-0.98 14 -2.96 14 -5 14 C-5 15.98 -5 17.96 -5 20 C-12.26 20 -19.52 20 -27 20 C-27.33 21.65 -27.66 23.3 -28 25 C-29.98 25 -31.96 25 -34 25 C-34 26.98 -34 28.96 -34 31 C-37.96 31 -41.92 31 -46 31 C-46 32.65 -46 34.3 -46 36 C-46.33 36 -46.66 36 -47 36 C-47 34.35 -47 32.7 -47 31 C-48.65 31 -50.3 31 -52 31 C-52 32.65 -52 34.3 -52 36 C-54.31 36 -56.62 36 -59 36 C-59 35.67 -59 35.34 -59 35 C-57.35 35 -55.7 35 -54 35 C-54 33.35 -54 31.7 -54 30 C-52.35 29.67 -50.7 29.34 -49 29 C-48.67 27.35 -48.34 25.7 -48 24 C-44.04 24 -40.08 24 -36 24 C-36 22.02 -36 20.04 -36 18 C-34.02 18 -32.04 18 -30 18 C-30 16.02 -30 14.04 -30 12 C-22.08 12 -14.16 12 -6 12 C-6 10.02 -6 8.04 -6 6 C-4.35 5.67 -2.7 5.34 -1 5 C-0.67 3.35 -0.34 1.7 0 0 Z " fill="#CC789A" transform="translate(106,38)"/>
<path d="M0 0 C1.98 0 3.96 0 6 0 C6 1.98 6 3.96 6 6 C4.35 6 2.7 6 1 6 C1 7.98 1 9.96 1 12 C-0.98 12 -2.96 12 -5 12 C-5 13.98 -5 15.96 -5 18 C-6.98 18 -8.96 18 -11 18 C-11 23.61 -11 29.22 -11 35 C-14.96 35 -18.92 35 -23 35 C-23 33.02 -23 31.04 -23 29 C-24.98 29 -26.96 29 -29 29 C-29 25.37 -29 21.74 -29 18 C-30.98 18 -32.96 18 -35 18 C-35 16.02 -35 14.04 -35 12 C-33.02 12 -31.04 12 -29 12 C-29 13.65 -29 15.3 -29 17 C-23.39 17 -17.78 17 -12 17 C-12 15.02 -12 13.04 -12 11 C-10.02 11 -8.04 11 -6 11 C-6 9.02 -6 7.04 -6 5 C-4.02 5 -2.04 5 0 5 C0 3.35 0 1.7 0 0 Z " fill="#C5396A" transform="translate(100,92)"/>
<path d="M0 0 C0.33 0 0.66 0 1 0 C1 1.98 1 3.96 1 6 C-2.96 6 -6.92 6 -11 6 C-11 7.98 -11 9.96 -11 12 C-16.94 12 -22.88 12 -29 12 C-29 13.98 -29 15.96 -29 18 C-30.98 18 -32.96 18 -35 18 C-35 19.32 -35 20.64 -35 22 C-33.02 22 -31.04 22 -29 22 C-29 23.98 -29 25.96 -29 28 C-27.02 28 -25.04 28 -23 28 C-23 29.98 -23 31.96 -23 34 C-23.33 34 -23.66 34 -24 34 C-24 32.35 -24 30.7 -24 29 C-25.98 29 -27.96 29 -30 29 C-30 30.98 -30 32.96 -30 35 C-28.02 35 -26.04 35 -24 35 C-24 38.63 -24 42.26 -24 46 C-22.02 46 -20.04 46 -18 46 C-18 47.98 -18 49.96 -18 52 C-14.04 52 -10.08 52 -6 52 C-6 53.98 -6 55.96 -6 58 C5.55 58 17.1 58 29 58 C29 56.02 29 54.04 29 52 C42.86 52 56.72 52 71 52 C71 53.98 71 55.96 71 58 C74.63 58 78.26 58 82 58 C82 54.37 82 50.74 82 47 C82.33 47 82.66 47 83 47 C83 52.61 83 58.22 83 64 C84.65 64 86.3 64 88 64 C88 67.63 88 71.26 88 75 C87.67 75 87.34 75 87 75 C87 71.7 87 68.4 87 65 C85.02 65 83.04 65 81 65 C81 63.02 81 61.04 81 59 C77.04 59 73.08 59 69 59 C69 57.35 69 55.7 69 54 C49.695 53.505 49.695 53.505 30 53 C30 54.98 30 56.96 30 59 C17.79 59 5.58 59 -7 59 C-7 57.02 -7 55.04 -7 53 C-10.96 53 -14.92 53 -19 53 C-19 51.02 -19 49.04 -19 47 C-22.3 47 -25.6 47 -29 47 C-29 48.65 -29 50.3 -29 52 C-31.31 52 -33.62 52 -36 52 C-36 51.67 -36 51.34 -36 51 C-34.35 51 -32.7 51 -31 51 C-31.020625 50.195625 -31.04125 49.39125 -31.0625 48.5625 C-31 46 -31 46 -30 45 C-28.33382885 44.95936168 -26.66611905 44.957279 -25 45 C-25 42.03 -25 39.06 -25 36 C-26.98 36 -28.96 36 -31 36 C-31 34.02 -31 32.04 -31 30 C-32.98 30 -34.96 30 -37 30 C-37 28.02 -37 26.04 -37 24 C-39.97 24.33 -42.94 24.66 -46 25 C-46.33 26.65 -46.66 28.3 -47 30 C-48.65 30 -50.3 30 -52 30 C-52 31.65 -52 33.3 -52 35 C-52.33 35 -52.66 35 -53 35 C-53 33.02 -53 31.04 -53 29 C-51.35 29 -49.7 29 -48 29 C-48 27.02 -48 25.04 -48 23 C-49.98 23 -51.96 23 -54 23 C-54 22.67 -54 22.34 -54 22 C-48.06 22.33 -42.12 22.66 -36 23 C-36 21.02 -36 19.04 -36 17 C-34.02 17 -32.04 17 -30 17 C-30 15.02 -30 13.04 -30 11 C-24.06 11 -18.12 11 -12 11 C-12 9.02 -12 7.04 -12 5 C-8.04 5 -4.08 5 0 5 C0 3.35 0 1.7 0 0 Z " fill="#CC7090" transform="translate(95,75)"/>
<path d="M0 0 C0.33 0 0.66 0 1 0 C1 1.98 1 3.96 1 6 C2.98 6 4.96 6 7 6 C7 7.65 7 9.3 7 11 C10.3 11 13.6 11 17 11 C17 11.33 17 11.66 17 12 C13.37 12 9.74 12 6 12 C6 10.35 6 8.7 6 7 C4.02 7 2.04 7 0 7 C0 8.98 0 10.96 0 13 C-1.98 13 -3.96 13 -6 13 C-6 16.63 -6 20.26 -6 24 C-11.61 24 -17.22 24 -23 24 C-23 18.39 -23 12.78 -23 7 C-15.74 6.67 -8.48 6.34 -1 6 C-0.67 4.02 -0.34 2.04 0 0 Z " fill="#FC718F" transform="translate(142,162)"/>
<path d="M0 0 C7.92 0 15.84 0 24 0 C24 10.23 24 20.46 24 31 C22.35 31 20.7 31 19 31 C19.020625 31.804375 19.04125 32.60875 19.0625 33.4375 C19 36 19 36 18 37 C16.33382885 37.04063832 14.66611905 37.042721 13 37 C13 38.65 13 40.3 13 42 C10.525 42.495 10.525 42.495 8 43 C8 42.34 8 41.68 8 41 C8.99 41 9.98 41 11 41 C11 39.02 11 37.04 11 35 C12.98 35 14.96 35 17 35 C17 33.02 17 31.04 17 29 C18.98 29 20.96 29 23 29 C23 21.74 23 14.48 23 7 C21.35 7 19.7 7 18 7 C18 8.65 18 10.3 18 12 C12.06 12 6.12 12 0 12 C0 8.04 0 4.08 0 0 Z " fill="#F66283" transform="translate(195,133)"/>
<path d="M0 0 C3.63 0 7.26 0 11 0 C11.33 3.63 11.66 7.26 12 11 C9.69 11 7.38 11 5 11 C5 14.63 5 18.26 5 22 C-2.26 22 -9.52 22 -17 22 C-17 20.35 -17 18.7 -17 17 C-15.35 17 -13.7 17 -12 17 C-12 15.02 -12 13.04 -12 11 C-8.04 11 -4.08 11 0 11 C0 7.37 0 3.74 0 0 Z " fill="#FC3666" transform="translate(136,187)"/>
<path d="M0 0 C5.94 0 11.88 0 18 0 C18 1.65 18 3.3 18 5 C15.69 5 13.38 5 11 5 C11 3.68 11 2.36 11 1 C7.7 1 4.4 1 1 1 C1 8.26 1 15.52 1 23 C2.65 23 4.3 23 6 23 C6 24.98 6 26.96 6 29 C11.61 29.33 17.22 29.66 23 30 C23 31.65 23 33.3 23 35 C13.76 35 4.52 35 -5 35 C-5 31.37 -5 27.74 -5 24 C-3.35 24 -1.7 24 0 24 C0 16.08 0 8.16 0 0 Z " fill="#FC3766" transform="translate(183,98)"/>
<path d="M0 0 C1.65 0 3.3 0 5 0 C5.33 1.98 5.66 3.96 6 6 C4.02 6 2.04 6 0 6 C0 11.28 0 16.56 0 22 C1.65 22 3.3 22 5 22 C5 20.35 5 18.7 5 17 C6.98 17 8.96 17 11 17 C11 18.98 11 20.96 11 23 C9.02 23 7.04 23 5 23 C5 24.98 5 26.96 5 29 C3.18757948 29.02687279 1.37504767 29.04633715 -0.4375 29.0625 C-1.44683594 29.07410156 -2.45617188 29.08570312 -3.49609375 29.09765625 C-6 29 -6 29 -7 28 C-7.38167576 24.34669741 -7.46983656 20.66915889 -7.625 17 C-7.6765625 15.96359375 -7.728125 14.9271875 -7.78125 13.859375 C-7.82507812 12.87453125 -7.86890625 11.8896875 -7.9140625 10.875 C-7.9548291 9.96492188 -7.9955957 9.05484375 -8.03759766 8.1171875 C-8 6 -8 6 -7 5 C-4.66702567 4.95907063 -2.33294775 4.95758277 0 5 C0 3.35 0 1.7 0 0 Z " fill="#BB2D61" transform="translate(54,69)"/>
<path d="M0 0 C13.86 0 27.72 0 42 0 C42 1.98 42 3.96 42 6 C28.14 6 14.28 6 0 6 C0 4.02 0 2.04 0 0 Z " fill="#C30A51" transform="translate(124,121)"/>
<path d="M0 0 C0.33 0 0.66 0 1 0 C1 1.98 1 3.96 1 6 C8.59 6 16.18 6 24 6 C24 4.35 24 2.7 24 1 C24.33 1 24.66 1 25 1 C25 3.31 25 5.62 25 8 C17.74 8 10.48 8 3 8 C2.67 9.65 2.34 11.3 2 13 C0.02 13 -1.96 13 -4 13 C-4 14.98 -4 16.96 -4 19 C-7.96 19 -11.92 19 -16 19 C-16 20.65 -16 22.3 -16 24 C-16.33 24 -16.66 24 -17 24 C-17 22.35 -17 20.7 -17 19 C-18.65 19 -20.3 19 -22 19 C-22 20.65 -22 22.3 -22 24 C-24.31 24 -26.62 24 -29 24 C-29 23.67 -29 23.34 -29 23 C-27.35 23 -25.7 23 -24 23 C-24 21.35 -24 19.7 -24 18 C-22.35 17.67 -20.7 17.34 -19 17 C-18.67 15.35 -18.34 13.7 -18 12 C-14.04 12 -10.08 12 -6 12 C-6 10.02 -6 8.04 -6 6 C-4.02 6 -2.04 6 0 6 C0 4.02 0 2.04 0 0 Z " fill="#D2859F" transform="translate(76,50)"/>
<path d="M0 0 C1.98 0 3.96 0 6 0 C6 1.98 6 3.96 6 6 C9.63 6 13.26 6 17 6 C17 7.98 17 9.96 17 12 C13.37 12 9.74 12 6 12 C6 15.96 6 19.92 6 24 C0.39 24 -5.22 24 -11 24 C-11 23.67 -11 23.34 -11 23 C-5.72 23 -0.44 23 5 23 C5 21.35 5 19.7 5 18 C1.37 18 -2.26 18 -6 18 C-6 16.02 -6 14.04 -6 12 C-4.02 12 -2.04 12 0 12 C0 8.04 0 4.08 0 0 Z " fill="#F63367" transform="translate(189,139)"/>
<path d="M0 0 C7.92 0 15.84 0 24 0 C24 1.98 24 3.96 24 6 C20.04 6 16.08 6 12 6 C12 7.98 12 9.96 12 12 C8.04 12 4.08 12 0 12 C0 8.04 0 4.08 0 0 Z " fill="#FA6184" transform="translate(112,192)"/>
<path d="M0 0 C11.88 0 23.76 0 36 0 C36 1.98 36 3.96 36 6 C24.12 6 12.24 6 0 6 C0 4.02 0 2.04 0 0 Z " fill="#BF1152" transform="translate(118,80)"/>
<path d="M0 0 C11.55 0 23.1 0 35 0 C35 1.98 35 3.96 35 6 C23.45 6 11.9 6 0 6 C0 4.02 0 2.04 0 0 Z " fill="#C20C51" transform="translate(89,127)"/>
<path d="M0 0 C11.55 0 23.1 0 35 0 C35 1.98 35 3.96 35 6 C23.45 6 11.9 6 0 6 C0 4.02 0 2.04 0 0 Z " fill="#FC3969" transform="translate(89,121)"/>
<path d="M0 0 C0.33 0 0.66 0 1 0 C1 1.98 1 3.96 1 6 C-2.96 6 -6.92 6 -11 6 C-11 7.98 -11 9.96 -11 12 C-16.94 12 -22.88 12 -29 12 C-29 13.98 -29 15.96 -29 18 C-30.98 18 -32.96 18 -35 18 C-35 19.32 -35 20.64 -35 22 C-33.02 22 -31.04 22 -29 22 C-29 23.98 -29 25.96 -29 28 C-27.02 28 -25.04 28 -23 28 C-23 29.98 -23 31.96 -23 34 C-23.33 34 -23.66 34 -24 34 C-24 32.35 -24 30.7 -24 29 C-25.98 29 -27.96 29 -30 29 C-30 30.98 -30 32.96 -30 35 C-28.02 35 -26.04 35 -24 35 C-24 38.63 -24 42.26 -24 46 C-25.98 46 -27.96 46 -30 46 C-30 45.67 -30 45.34 -30 45 C-28.35 45 -26.7 45 -25 45 C-25 42.03 -25 39.06 -25 36 C-26.98 36 -28.96 36 -31 36 C-31 34.02 -31 32.04 -31 30 C-32.98 30 -34.96 30 -37 30 C-37 28.02 -37 26.04 -37 24 C-39.97 24.33 -42.94 24.66 -46 25 C-46.33 26.65 -46.66 28.3 -47 30 C-48.65 30 -50.3 30 -52 30 C-52 31.65 -52 33.3 -52 35 C-52.33 35 -52.66 35 -53 35 C-53 33.02 -53 31.04 -53 29 C-51.35 29 -49.7 29 -48 29 C-48 27.02 -48 25.04 -48 23 C-49.98 23 -51.96 23 -54 23 C-54 22.67 -54 22.34 -54 22 C-48.06 22.33 -42.12 22.66 -36 23 C-36 21.02 -36 19.04 -36 17 C-34.02 17 -32.04 17 -30 17 C-30 15.02 -30 13.04 -30 11 C-24.06 11 -18.12 11 -12 11 C-12 9.02 -12 7.04 -12 5 C-8.04 5 -4.08 5 0 5 C0 3.35 0 1.7 0 0 Z " fill="#E3ABBE" transform="translate(95,75)"/>
<path d="M0 0 C1.98 0 3.96 0 6 0 C6 1.98 6 3.96 6 6 C4.02 6 2.04 6 0 6 C0 7.98 0 9.96 0 12 C-1.98 12 -3.96 12 -6 12 C-6 13.98 -6 15.96 -6 18 C-11.94 17.67 -17.88 17.34 -24 17 C-24 15.02 -24 13.04 -24 11 C-18.39 11 -12.78 11 -7 11 C-7 9.02 -7 7.04 -7 5 C-4.69 5 -2.38 5 0 5 C0 3.35 0 1.7 0 0 Z " fill="#BD4672" transform="translate(66,122)"/>
<path d="M0 0 C0.33 0 0.66 0 1 0 C1 1.98 1 3.96 1 6 C-4.94 6 -10.88 6 -17 6 C-17 7.98 -17 9.96 -17 12 C-26.57 12 -36.14 12 -46 12 C-46 15.96 -46 19.92 -46 24 C-48.31 24 -50.62 24 -53 24 C-53 25.65 -53 27.3 -53 29 C-54.98 29 -56.96 29 -59 29 C-59 30.98 -59 32.96 -59 35 C-66.92 35 -74.84 35 -83 35 C-83 33.02 -83 31.04 -83 29 C-82.67 29 -82.34 29 -82 29 C-82 30.65 -82 32.3 -82 34 C-74.74 34 -67.48 34 -60 34 C-60 32.35 -60 30.7 -60 29 C-65.28 29 -70.56 29 -76 29 C-76 28.67 -76 28.34 -76 28 C-70.72 28 -65.44 28 -60 28 C-60 26.35 -60 24.7 -60 23 C-56.04 23 -52.08 23 -48 23 C-48 19.04 -48 15.08 -48 11 C-38.1 11 -28.2 11 -18 11 C-18 9.02 -18 7.04 -18 5 C-12.06 5 -6.12 5 0 5 C0 3.35 0 1.7 0 0 Z " fill="#CB6187" transform="translate(201,175)"/>
<path d="M0 0 C1.65 0 3.3 0 5 0 C5 1.65 5 3.3 5 5 C7.31 5 9.62 5 12 5 C12 10.94 12 16.88 12 23 C10.02 23 8.04 23 6 23 C6 21.02 6 19.04 6 17 C4.02 17 2.04 17 0 17 C0 15.02 0 13.04 0 11 C1.65 11 3.3 11 5 11 C5 9.35 5 7.7 5 6 C3.35 6 1.7 6 0 6 C0 4.02 0 2.04 0 0 Z " fill="#BE064E" transform="translate(207,110)"/>
<path d="M0 0 C3.96 0 7.92 0 12 0 C12 1.98 12 3.96 12 6 C19.26 6 26.52 6 34 6 C34 7.32 34 8.64 34 10 C24.76 10 15.52 10 6 10 C6 8.35 6 6.7 6 5 C4.02 5 2.04 5 0 5 C0 3.35 0 1.7 0 0 Z " fill="#C0034E" transform="translate(148,175)"/>
<path d="M0 0 C1.98 0 3.96 0 6 0 C6 1.65 6 3.3 6 5 C11.94 5 17.88 5 24 5 C24 3.35 24 1.7 24 0 C25.65 0 27.3 0 29 0 C29 1.65 29 3.3 29 5 C27.35 5.33 25.7 5.66 24 6 C24 7.65 24 9.3 24 11 C18.06 11 12.12 11 6 11 C6 9.35 6 7.7 6 6 C4.02 6 2.04 6 0 6 C0 4.02 0 2.04 0 0 Z " fill="#DB1F5C" transform="translate(177,169)"/>
<path d="M0 0 C7.92 0 15.84 0 24 0 C24 1.98 24 3.96 24 6 C22.34605883 7.65394117 20.39684587 7.12999683 18.125 7.1328125 C17.14015625 7.13410156 16.1553125 7.13539063 15.140625 7.13671875 C14.10421875 7.13285156 13.0678125 7.12898437 12 7.125 C10.44539062 7.13080078 10.44539062 7.13080078 8.859375 7.13671875 C7.87453125 7.13542969 6.8896875 7.13414062 5.875 7.1328125 C4.96492188 7.13168457 4.05484375 7.13055664 3.1171875 7.12939453 C1 7 1 7 0 6 C0 4.02 0 2.04 0 0 Z " fill="#C32760" transform="translate(118,162)"/>
<path d="M0 0 C5.61 0 11.22 0 17 0 C17 1.98 17 3.96 17 6 C15.02 6 13.04 6 11 6 C11 9.96 11 13.92 11 18 C9.35 18 7.7 18 6 18 C6 14.04 6 10.08 6 6 C4.02 6 2.04 6 0 6 C0 4.02 0 2.04 0 0 Z " fill="#C4054F" transform="translate(178,133)"/>
<path d="M0 0 C0.33 0 0.66 0 1 0 C1 1.98 1 3.96 1 6 C2.98 6 4.96 6 7 6 C7 7.65 7 9.3 7 11 C8.65 11 10.3 11 12 11 C12 11.33 12 11.66 12 12 C9.69 12 7.38 12 5 12 C5 10.35 5 8.7 5 7 C3.35 7 1.7 7 0 7 C0 8.98 0 10.96 0 13 C1.65 13 3.3 13 5 13 C5 14.65 5 16.3 5 18 C3.02 18 1.04 18 -1 18 C-1 16.35 -1 14.7 -1 13 C-2.98 13 -4.96 13 -7 13 C-7 11.02 -7 9.04 -7 7 C-8.98 7 -10.96 7 -13 7 C-13 5.02 -13 3.04 -13 1 C-10.69 1 -8.38 1 -6 1 C-6 2.65 -6 4.3 -6 6 C-4.02 6 -2.04 6 0 6 C0 4.02 0 2.04 0 0 Z " fill="#F3819F" transform="translate(207,103)"/>
<path d="M0 0 C1.65 0 3.3 0 5 0 C5 7.26 5 14.52 5 22 C3.35 22 1.7 22 0 22 C0 18.37 0 14.74 0 11 C-1.98 11 -3.96 11 -6 11 C-6 9.02 -6 7.04 -6 5 C-4.02 5 -2.04 5 0 5 C0 3.35 0 1.7 0 0 Z " fill="#C00450" transform="translate(213,140)"/>
<path d="M0 0 C7.72772107 -0.13690844 15.30881404 0.24833087 23 1 C23 2.65 23 4.3 23 6 C15.41 6 7.82 6 0 6 C0 4.02 0 2.04 0 0 Z " fill="#FB3467" transform="translate(160,174)"/>
<path d="M0 0 C7.59 0 15.18 0 23 0 C23 1.65 23 3.3 23 5 C15.41 5 7.82 5 0 5 C0 3.35 0 1.7 0 0 Z " fill="#BC084E" transform="translate(77,51)"/>
<path d="M0 0 C7.26 0 14.52 0 22 0 C22 1.65 22 3.3 22 5 C14.74 5 7.48 5 0 5 C0 3.35 0 1.7 0 0 Z " fill="#C1054F" transform="translate(119,204)"/>
<path d="M0 0 C5.94 0 11.88 0 18 0 C18 1.98 18 3.96 18 6 C12.06 6 6.12 6 0 6 C0 4.02 0 2.04 0 0 Z " fill="#BE1453" transform="translate(65,80)"/>
<path d="M0 0 C1.58206057 0.00667536 3.16410534 0.0186375 4.74609375 0.03515625 C5.55240234 0.03966797 6.35871094 0.04417969 7.18945312 0.04882812 C9.18753131 0.06065107 11.18557158 0.07858711 13.18359375 0.09765625 C13.18359375 2.07765625 13.18359375 4.05765625 13.18359375 6.09765625 C7.24359375 6.09765625 1.30359375 6.09765625 -4.81640625 6.09765625 C-4.81640625 0.12324479 -4.81640625 0.12324479 0 0 Z " fill="#C2004F" transform="translate(122.81640625,185.90234375)"/>
<path d="M0 0 C1.65 0 3.3 0 5 0 C5 1.65 5 3.3 5 5 C8.63 5 12.26 5 16 5 C16 6.65 16 8.3 16 10 C10.72 10 5.44 10 0 10 C0 6.7 0 3.4 0 0 Z " fill="#C2024E" transform="translate(178,152)"/>
<path d="M0 0 C1.98 0 3.96 0 6 0 C6 5.61 6 11.22 6 17 C4.02 17 2.04 17 0 17 C0 11.39 0 5.78 0 0 Z " fill="#BC1254" transform="translate(112,169)"/>
<path d="M0 0 C1.98 0 3.96 0 6 0 C6 5.61 6 11.22 6 17 C4.02 17 2.04 17 0 17 C0 11.39 0 5.78 0 0 Z " fill="#BB1556" transform="translate(30,110)"/>
<path d="M0 0 C9.57 0 19.14 0 29 0 C29 1.98 29 3.96 29 6 C28.34 6 27.68 6 27 6 C27 4.68 27 3.36 27 2 C18.42 2 9.84 2 1 2 C1 2.99 1 3.98 1 5 C8.26 5 15.52 5 23 5 C23 5.33 23 5.66 23 6 C15.41 6 7.82 6 0 6 C0 4.02 0 2.04 0 0 Z " fill="#BC1D55" transform="translate(154,86)"/>
<path d="M0 0 C4.95 0 9.9 0 15 0 C15.33 1.32 15.66 2.64 16 4 C12.37 4 8.74 4 5 4 C5 5.98 5 7.96 5 10 C3.35 10 1.7 10 0 10 C0 6.7 0 3.4 0 0 Z " fill="#C0034E" transform="translate(72,111)"/>
<path d="M0 0 C1.65 0 3.3 0 5 0 C5.33 3.63 5.66 7.26 6 11 C2.04 11 -1.92 11 -6 11 C-6 9.35 -6 7.7 -6 6 C-4.02 6 -2.04 6 0 6 C0 4.02 0 2.04 0 0 Z " fill="#F83465" transform="translate(142,169)"/>
<path d="M0 0 C5.94 0 11.88 0 18 0 C18 1.65 18 3.3 18 5 C12.06 5 6.12 5 0 5 C0 3.35 0 1.7 0 0 Z " fill="#FB3566" transform="translate(183,169)"/>
<path d="M0 0 C1.65 0 3.3 0 5 0 C5.33 1.98 5.66 3.96 6 6 C4.02 6 2.04 6 0 6 C0 11.28 0 16.56 0 22 C1.65 22 3.3 22 5 22 C5 20.35 5 18.7 5 17 C6.98 17 8.96 17 11 17 C11 18.98 11 20.96 11 23 C7.04 23 3.08 23 -1 23 C-1.02706445 20.10410348 -1.04687029 17.20846205 -1.0625 14.3125 C-1.07087891 13.49587891 -1.07925781 12.67925781 -1.08789062 11.83789062 C-1.10442051 7.75500916 -1.03035098 3.98348293 0 0 Z " fill="#C46B8A" transform="translate(54,69)"/>
<path d="M0 0 C0.99 0 1.98 0 3 0 C3.33 5.28 3.66 10.56 4 16 C5.65 16.33 7.3 16.66 9 17 C9 17.99 9 18.98 9 20 C6.03 20 3.06 20 0 20 C0 13.4 0 6.8 0 0 Z " fill="#C2014E" transform="translate(49,76)"/>
<path d="M0 0 C4.29 0 8.58 0 13 0 C13 1.98 13 3.96 13 6 C8.71 6 4.42 6 0 6 C0 4.02 0 2.04 0 0 Z " fill="#FAA5BF" transform="translate(206,133)"/>
<path d="M0 0 C1.98 0 3.96 0 6 0 C6 1.98 6 3.96 6 6 C4.35 6 2.7 6 1 6 C1 7.98 1 9.96 1 12 C-0.98 12 -2.96 12 -5 12 C-5.33 9.69 -5.66 7.38 -6 5 C-4.02 5 -2.04 5 0 5 C0 3.35 0 1.7 0 0 Z " fill="#C1557C" transform="translate(41,98)"/>
<path d="M0 0 C5.94 0 11.88 0 18 0 C18 1.65 18 3.3 18 5 C15.69 5 13.38 5 11 5 C11 3.68 11 2.36 11 1 C7.7 1 4.4 1 1 1 C1 8.26 1 15.52 1 23 C2.65 23 4.3 23 6 23 C6 23.33 6 23.66 6 24 C4.02 24 2.04 24 0 24 C0 16.08 0 8.16 0 0 Z " fill="#F65781" transform="translate(183,98)"/>
<path d="M0 0 C1.98 0 3.96 0 6 0 C6 3.96 6 7.92 6 12 C4.02 12 2.04 12 0 12 C0 8.04 0 4.08 0 0 Z " fill="#B9265C" transform="translate(112,192)"/>
<path d="M0 0 C3.96 0 7.92 0 12 0 C12 1.98 12 3.96 12 6 C8.04 6 4.08 6 0 6 C0 4.02 0 2.04 0 0 Z " fill="#FA3A68" transform="translate(124,180)"/>
<path d="M0 0 C3.96 0 7.92 0 12 0 C12 1.98 12 3.96 12 6 C8.04 6 4.08 6 0 6 C0 4.02 0 2.04 0 0 Z " fill="#C20E51" transform="translate(77,121)"/>
<path d="M0 0 C1.81242052 -0.02687279 3.62495233 -0.04633715 5.4375 -0.0625 C6.44683594 -0.07410156 7.45617187 -0.08570313 8.49609375 -0.09765625 C11 0 11 0 12 1 C12 2.65 12 4.3 12 6 C8.04 6 4.08 6 0 6 C0 4.02 0 2.04 0 0 Z " fill="#B0295A" transform="translate(59,62)"/>
<path d="M0 0 C5.61 0 11.22 0 17 0 C17 1.32 17 2.64 17 4 C8.585 4.495 8.585 4.495 0 5 C0 3.35 0 1.7 0 0 Z " fill="#C1024D" transform="translate(183,175)"/>
<path d="M0 0 C3.63 0 7.26 0 11 0 C11 1.98 11 3.96 11 6 C7.37 6 3.74 6 0 6 C0 4.02 0 2.04 0 0 Z " fill="#BD1A56" transform="translate(107,86)"/>
<path d="M0 0 C3.63 0 7.26 0 11 0 C11 1.98 11 3.96 11 6 C7.37 6 3.74 6 0 6 C0 4.02 0 2.04 0 0 Z " fill="#B72056" transform="translate(83,74)"/>
<path d="M0 0 C0.33 0 0.66 0 1 0 C1 4.62 1 9.24 1 14 C-0.65 14 -2.3 14 -4 14 C-3.979375 14.804375 -3.95875 15.60875 -3.9375 16.4375 C-4 19 -4 19 -5 20 C-6.66617115 20.04063832 -8.33388095 20.042721 -10 20 C-10 21.65 -10 23.3 -10 25 C-11.65 25.33 -13.3 25.66 -15 26 C-15 25.34 -15 24.68 -15 24 C-14.01 24 -13.02 24 -12 24 C-12 22.02 -12 20.04 -12 18 C-10.02 18 -8.04 18 -6 18 C-6 16.02 -6 14.04 -6 12 C-4.02 12 -2.04 12 0 12 C0 8.04 0 4.08 0 0 Z " fill="#D792AC" transform="translate(218,150)"/>
<path d="M0 0 C1.65 0 3.3 0 5 0 C5 1.65 5 3.3 5 5 C7.31 5 9.62 5 12 5 C12 10.94 12 16.88 12 23 C11.67 23 11.34 23 11 23 C11 17.39 11 11.78 11 6 C9.35 6 7.7 6 6 6 C6 7.98 6 9.96 6 12 C4.02 12 2.04 12 0 12 C0 11.67 0 11.34 0 11 C1.65 11 3.3 11 5 11 C5 9.35 5 7.7 5 6 C3.35 6 1.7 6 0 6 C0 4.02 0 2.04 0 0 Z " fill="#CC5481" transform="translate(207,110)"/>
<path d="M0 0 C1.65 0 3.3 0 5 0 C5 3.96 5 7.92 5 12 C3.35 12 1.7 12 0 12 C0 8.04 0 4.08 0 0 Z " fill="#C0094E" transform="translate(148,186)"/>
<path d="M0 0 C4.95 0 9.9 0 15 0 C15 1.32 15 2.64 15 4 C10.05 4 5.1 4 0 4 C0 2.68 0 1.36 0 0 Z " fill="#C3024C" transform="translate(43,134)"/>
<path d="M0 0 C3.96 0 7.92 0 12 0 C12 1.65 12 3.3 12 5 C8.04 5 4.08 5 0 5 C0 3.35 0 1.7 0 0 Z " fill="#FB3767" transform="translate(77,116)"/>
<path d="M0 0 C0.33 0 0.66 0 1 0 C1 1.98 1 3.96 1 6 C2.98 6 4.96 6 7 6 C7 7.65 7 9.3 7 11 C8.65 11 10.3 11 12 11 C12 11.33 12 11.66 12 12 C9.69 12 7.38 12 5 12 C5 10.35 5 8.7 5 7 C3.02 7 1.04 7 -1 7 C-1 8.65 -1 10.3 -1 12 C-2.65 12 -4.3 12 -6 12 C-6 10.02 -6 8.04 -6 6 C-4.02 6 -2.04 6 0 6 C0 4.02 0 2.04 0 0 Z " fill="#E4ABC0" transform="translate(207,103)"/>
<path d="M0 0 C0.33 0 0.66 0 1 0 C1 1.65 1 3.3 1 5 C2.98 5 4.96 5 7 5 C7 6.98 7 8.96 7 11 C4.69 11 2.38 11 0 11 C0 9.35 0 7.7 0 6 C-3.63 6 -7.26 6 -11 6 C-11 5.67 -11 5.34 -11 5 C-7.37 5 -3.74 5 0 5 C0 3.35 0 1.7 0 0 Z " fill="#DD386A" transform="translate(206,122)"/>
<path d="M0 0 C3.63 0 7.26 0 11 0 C11 1.65 11 3.3 11 5 C7.37 5 3.74 5 0 5 C0 3.35 0 1.7 0 0 Z " fill="#C2014E" transform="translate(136,181)"/>
<path d="M0 0 C3.63 0 7.26 0 11 0 C11 1.65 11 3.3 11 5 C7.37 5 3.74 5 0 5 C0 3.35 0 1.7 0 0 Z " fill="#BC084D" transform="translate(160,169)"/>
<path d="M0 0 C3.63 0 7.26 0 11 0 C11 1.65 11 3.3 11 5 C7.37 5 3.74 5 0 5 C0 3.35 0 1.7 0 0 Z " fill="#C3024E" transform="translate(195,151)"/>
<path d="M0 0 C3.63 0 7.26 0 11 0 C11 1.65 11 3.3 11 5 C7.37 5 3.74 5 0 5 C0 3.35 0 1.7 0 0 Z " fill="#C1044C" transform="translate(195,128)"/>
<path d="M0 0 C3.63 0 7.26 0 11 0 C11 1.65 11 3.3 11 5 C7.37 5 3.74 5 0 5 C0 3.35 0 1.7 0 0 Z " fill="#BD0C4F" transform="translate(95,69)"/>
<path d="M0 0 C0.33 0 0.66 0 1 0 C1 1.65 1 3.3 1 5 C2.65 5 4.3 5 6 5 C6 5.33 6 5.66 6 6 C4.02 6 2.04 6 0 6 C0 7.98 0 9.96 0 12 C-1.98 12 -3.96 12 -6 12 C-6 9.69 -6 7.38 -6 5 C-4.02 5 -2.04 5 0 5 C0 3.35 0 1.7 0 0 Z " fill="#EA4674" transform="translate(177,163)"/>
<path d="M0 0 C6.93 0 13.86 0 21 0 C20.01 0.495 20.01 0.495 19 1 C19 1.66 19 2.32 19 3 C16.39521117 3.0809313 13.79293347 3.14045434 11.1875 3.1875 C10.08051758 3.22520508 10.08051758 3.22520508 8.95117188 3.26367188 C6.79296875 3.29296875 6.79296875 3.29296875 3 3 C2.01 2.01 1.02 1.02 0 0 Z " fill="#C40050" transform="translate(120,164)"/>
<path d="M0 0 C1.65 0 3.3 0 5 0 C5 1.65 5 3.3 5 5 C3.35 5.33 1.7 5.66 0 6 C0 7.65 0 9.3 0 11 C-5.61 11 -11.22 11 -17 11 C-17 10.67 -17 10.34 -17 10 C-11.72 10 -6.44 10 -1 10 C-0.67 6.7 -0.34 3.4 0 0 Z " fill="#BA1452" transform="translate(201,169)"/>
<path d="M0 0 C1.58206057 0.00667536 3.16410534 0.0186375 4.74609375 0.03515625 C5.55240234 0.03966797 6.35871094 0.04417969 7.18945312 0.04882812 C9.18753131 0.06065107 11.18557158 0.07858711 13.18359375 0.09765625 C13.18359375 2.07765625 13.18359375 4.05765625 13.18359375 6.09765625 C7.24359375 6.09765625 1.30359375 6.09765625 -4.81640625 6.09765625 C-4.81640625 0.12324479 -4.81640625 0.12324479 0 0 Z M-1.81640625 1.09765625 C-2.14640625 2.41765625 -2.47640625 3.73765625 -2.81640625 5.09765625 C2.13359375 5.09765625 7.08359375 5.09765625 12.18359375 5.09765625 C12.18359375 3.77765625 12.18359375 2.45765625 12.18359375 1.09765625 C7.56359375 1.09765625 2.94359375 1.09765625 -1.81640625 1.09765625 Z " fill="#C81655" transform="translate(122.81640625,185.90234375)"/>
<path d="M0 0 C0.33 0 0.66 0 1 0 C1.33 3.96 1.66 7.92 2 12 C1.67 12 1.34 12 1 12 C1 10.35 1 8.7 1 7 C-0.65 7 -2.3 7 -4 7 C-4 8.65 -4 10.3 -4 12 C-6.31 12 -8.62 12 -11 12 C-11 11.67 -11 11.34 -11 11 C-9.35 11 -7.7 11 -6 11 C-6 9.35 -6 7.7 -6 6 C-4.35 5.67 -2.7 5.34 -1 5 C-0.67 3.35 -0.34 1.7 0 0 Z " fill="#DEB0C1" transform="translate(58,62)"/>
<path d="M0 0 C1.98 0 3.96 0 6 0 C6 1.98 6 3.96 6 6 C4.02 6 2.04 6 0 6 C0 4.02 0 2.04 0 0 Z " fill="#B82257" transform="translate(59,127)"/>
<path d="M0 0 C1.98 0 3.96 0 6 0 C6 1.98 6 3.96 6 6 C4.02 6 2.04 6 0 6 C0 4.02 0 2.04 0 0 Z " fill="#C61254" transform="translate(112,104)"/>
<path d="M0 0 C1.98 0 3.96 0 6 0 C6 1.98 6 3.96 6 6 C4.02 6 2.04 6 0 6 C0 4.02 0 2.04 0 0 Z " fill="#B82258" transform="translate(59,98)"/>
<path d="M0 0 C1.98 0 3.96 0 6 0 C6 1.98 6 3.96 6 6 C4.02 6 2.04 6 0 6 C0 4.02 0 2.04 0 0 Z " fill="#FBA2BE" transform="translate(171,92)"/>
<path d="M0 0 C1.98 0 3.96 0 6 0 C6 1.98 6 3.96 6 6 C4.02 6 2.04 6 0 6 C0 4.02 0 2.04 0 0 Z " fill="#FCA3BC" transform="translate(136,86)"/>
<path d="M0 0 C1.98 0 3.96 0 6 0 C6 1.98 6 3.96 6 6 C4.02 6 2.04 6 0 6 C0 4.02 0 2.04 0 0 Z " fill="#FBA3BB" transform="translate(124,86)"/>
<path d="M0 0 C1.98 0 3.96 0 6 0 C6 1.98 6 3.96 6 6 C4.02 6 2.04 6 0 6 C0 4.02 0 2.04 0 0 Z " fill="#B71F58" transform="translate(59,86)"/>
<path d="M0 0 C0.99 0 1.98 0 3 0 C3 3.3 3 6.6 3 10 C1.68 10 0.36 10 -1 10 C-0.67 6.7 -0.34 3.4 0 0 Z " fill="#C1034E" transform="translate(114,193)"/>
<path d="M0 0 C1.98 0 3.96 0 6 0 C6.042721 1.66611905 6.04063832 3.33382885 6 5 C5 6 5 6 2.4375 6.0625 C1.2309375 6.0315625 1.2309375 6.0315625 0 6 C0 4.02 0 2.04 0 0 Z " fill="#FB3865" transform="translate(201,163)"/>
<path d="M0 0 C1.98 0 3.96 0 6 0 C6 1.98 6 3.96 6 6 C4.33388095 6.042721 2.66617115 6.04063832 1 6 C0 5 0 5 -0.0625 2.4375 C-0.041875 1.633125 -0.02125 0.82875 0 0 Z " fill="#B72157" transform="translate(112,57)"/>
<path d="M0 0 C1.98 0 3.96 0 6 0 C6 1.65 6 3.3 6 5 C4.02 5 2.04 5 0 5 C0 3.35 0 1.7 0 0 Z " fill="#BB0F50" transform="translate(171,163)"/>
<path d="M0 0 C1.98 0 3.96 0 6 0 C6 1.65 6 3.3 6 5 C4.02 5 2.04 5 0 5 C0 3.35 0 1.7 0 0 Z " fill="#BC1452" transform="translate(195,98)"/>
<path d="M0 0 C1.65 0 3.3 0 5 0 C5 1.98 5 3.96 5 6 C3.35 6 1.7 6 0 6 C0 4.02 0 2.04 0 0 Z " fill="#FBA7C0" transform="translate(148,86)"/>
<path d="M0 0 C3.3 0 6.6 0 10 0 C10 0.99 10 1.98 10 3 C6.7 3 3.4 3 0 3 C0 2.01 0 1.02 0 0 Z " fill="#C4024D" transform="translate(60,64)"/>
<path d="M0 0 C1.98 0 3.96 0 6 0 C6 1.65 6 3.3 6 5 C4.02 5 2.04 5 0 5 C0 3.35 0 1.7 0 0 Z " fill="#BA1452" transform="translate(71,57)"/>
<path d="M0 0 C1.65 0 3.3 0 5 0 C5 1.98 5 3.96 5 6 C3.35 6 1.7 6 0 6 C0 4.02 0 2.04 0 0 Z " fill="#B81953" transform="translate(107,39)"/>
<path d="M0 0 C2.97 0 5.94 0 9 0 C9 0.99 9 1.98 9 3 C6.03 3 3.06 3 0 3 C0 2.01 0 1.02 0 0 Z " fill="#C1014E" transform="translate(108,88)"/>
<path d="M0 0 C2.97 0 5.94 0 9 0 C9 0.99 9 1.98 9 3 C6.03 3 3.06 3 0 3 C0 2.01 0 1.02 0 0 Z " fill="#C10150" transform="translate(84,76)"/>
<path d="M0 0 C1.65 0 3.3 0 5 0 C5 1.65 5 3.3 5 5 C3.35 5 1.7 5 0 5 C0 3.35 0 1.7 0 0 Z " fill="#BF064E" transform="translate(142,198)"/>
<path d="M0 0 C1.65 0 3.3 0 5 0 C5 1.65 5 3.3 5 5 C3.35 5 1.7 5 0 5 C0 3.35 0 1.7 0 0 Z " fill="#FD3568" transform="translate(148,181)"/>
<path d="M0 0 C1.65 0 3.3 0 5 0 C5 1.65 5 3.3 5 5 C3.35 5 1.7 5 0 5 C0 3.35 0 1.7 0 0 Z " fill="#FD6586" transform="translate(172,169)"/>
<path d="M0 0 C1.65 0 3.3 0 5 0 C5 1.65 5 3.3 5 5 C3.35 5 1.7 5 0 5 C0 3.35 0 1.7 0 0 Z " fill="#BD0A4C" transform="translate(142,169)"/>
<path d="M0 0 C1.65 0 3.3 0 5 0 C5 1.65 5 3.3 5 5 C3.35 5 1.7 5 0 5 C0 3.35 0 1.7 0 0 Z " fill="#C10448" transform="translate(178,169)"/>
<path d="M0 0 C1.65 0 3.3 0 5 0 C5 1.65 5 3.3 5 5 C3.35 5 1.7 5 0 5 C0 3.35 0 1.7 0 0 Z " fill="#BF064D" transform="translate(207,163)"/>
<path d="M0 0 C1.65 0 3.3 0 5 0 C5 1.65 5 3.3 5 5 C3.35 5 1.7 5 0 5 C0 3.35 0 1.7 0 0 Z " fill="#B9114C" transform="translate(36,128)"/>
<path d="M0 0 C1.65 0 3.3 0 5 0 C5 1.65 5 3.3 5 5 C3.35 5 1.7 5 0 5 C0 3.35 0 1.7 0 0 Z " fill="#FC6989" transform="translate(207,128)"/>
<path d="M0 0 C1.65 0 3.3 0 5 0 C5 1.65 5 3.3 5 5 C3.35 5 1.7 5 0 5 C0 3.35 0 1.7 0 0 Z " fill="#B91250" transform="translate(66,122)"/>
<path d="M0 0 C1.65 0 3.3 0 5 0 C5 1.65 5 3.3 5 5 C3.35 5 1.7 5 0 5 C0 3.35 0 1.7 0 0 Z " fill="#FDACC5" transform="translate(207,116)"/>
<path d="M0 0 C1.65 0 3.3 0 5 0 C5 1.65 5 3.3 5 5 C3.35 5 1.7 5 0 5 C0 3.35 0 1.7 0 0 Z " fill="#BC0B4A" transform="translate(207,110)"/>
<path d="M0 0 C1.65 0 3.3 0 5 0 C5 1.65 5 3.3 5 5 C3.35 5 1.7 5 0 5 C0 3.35 0 1.7 0 0 Z " fill="#FBADC4" transform="translate(201,110)"/>
<path d="M0 0 C1.65 0 3.3 0 5 0 C5 1.65 5 3.3 5 5 C3.35 5 1.7 5 0 5 C0 3.35 0 1.7 0 0 Z " fill="#BA0E4D" transform="translate(36,104)"/>
<path d="M0 0 C1.65 0 3.3 0 5 0 C5 1.65 5 3.3 5 5 C3.35 5 1.7 5 0 5 C0 3.35 0 1.7 0 0 Z " fill="#FDABC4" transform="translate(195,104)"/>
<path d="M0 0 C1.65 0 3.3 0 5 0 C5 1.65 5 3.3 5 5 C3.35 5 1.7 5 0 5 C0 3.35 0 1.7 0 0 Z " fill="#BC0C4F" transform="translate(89,104)"/>
<path d="M0 0 C1.65 0 3.3 0 5 0 C5 1.65 5 3.3 5 5 C3.35 5 1.7 5 0 5 C0 3.35 0 1.7 0 0 Z " fill="#BC0B4E" transform="translate(201,104)"/>
<path d="M0 0 C1.65 0 3.3 0 5 0 C5 1.65 5 3.3 5 5 C3.35 5 1.7 5 0 5 C0 3.35 0 1.7 0 0 Z " fill="#BC0D4F" transform="translate(42,98)"/>
<path d="M0 0 C1.65 0 3.3 0 5 0 C5 1.65 5 3.3 5 5 C3.35 5 1.7 5 0 5 C0 3.35 0 1.7 0 0 Z " fill="#BC0C4D" transform="translate(95,98)"/>
<path d="M0 0 C1.65 0 3.3 0 5 0 C5 1.65 5 3.3 5 5 C3.35 5 1.7 5 0 5 C0 3.35 0 1.7 0 0 Z " fill="#C20A4D" transform="translate(101,93)"/>
<path d="M0 0 C1.65 0 3.3 0 5 0 C5 1.65 5 3.3 5 5 C3.35 5 1.7 5 0 5 C0 3.35 0 1.7 0 0 Z " fill="#B8114D" transform="translate(54,69)"/>
<path d="M0 0 C1.65 0 3.3 0 5 0 C5 1.65 5 3.3 5 5 C3.35 5 1.7 5 0 5 C0 3.35 0 1.7 0 0 Z " fill="#B7114F" transform="translate(107,63)"/>
<path d="M0 0 C1.65 0 3.3 0 5 0 C5 1.65 5 3.3 5 5 C3.35 5 1.7 5 0 5 C0 3.35 0 1.7 0 0 Z " fill="#BC0C4E" transform="translate(101,45)"/>
<path d="M0 0 C0.33 0 0.66 0 1 0 C1.02687279 1.81242052 1.04633715 3.62495233 1.0625 5.4375 C1.07410156 6.44683594 1.08570313 7.45617187 1.09765625 8.49609375 C1 11 1 11 0 12 C-1.66617115 12.04063832 -3.33388095 12.042721 -5 12 C-5 11.34 -5 10.68 -5 10 C-3.68 9.67 -2.36 9.34 -1 9 C-0.67 6.03 -0.34 3.06 0 0 Z " fill="#EA2762" transform="translate(212,151)"/>
<path d="M0 0 C1.32 0 2.64 0 4 0 C4 1.65 4 3.3 4 5 C2.68 5 1.36 5 0 5 C0 3.35 0 1.7 0 0 Z " fill="#BC0949" transform="translate(66,104)"/>
<path d="M0 0 C0.66 0 1.32 0 2 0 C2.042721 1.66611905 2.04063832 3.33382885 2 5 C1 6 1 6 -1.5625 6.0625 C-2.7690625 6.0315625 -2.7690625 6.0315625 -4 6 C-2.68 5.34 -1.36 4.68 0 4 C0 2.68 0 1.36 0 0 Z " fill="#EF2C64" transform="translate(205,163)"/>
</svg>
